<svg width="150" height="32" viewBox="0 0 150 32" fill="none" xmlns="http://www.w3.org/2000/svg">
<circle cx="16" cy="16" r="14" stroke="#0078E7" stroke-width="4"/>
<path d="M41.1328 23V8.45455H51.6158V11.6364H45.0817V14.1364H51.076V17.3182H45.0817V19.8182H51.5874V23H41.1328ZM53.5742 23V8.45455H59.8526C60.9322 8.45455 61.8768 8.66761 62.6864 9.09375C63.4961 9.51989 64.1258 10.1188 64.5756 10.8906C65.0254 11.6624 65.2504 12.5644 65.2504 13.5966C65.2504 14.6383 65.0183 15.5402 64.5543 16.3026C64.0951 17.0649 63.4487 17.652 62.6154 18.0639C61.7868 18.4759 60.8185 18.6818 59.7106 18.6818H55.9606V15.6136H58.9151C59.3791 15.6136 59.7745 15.5331 60.1012 15.3722C60.4326 15.2064 60.686 14.9721 60.8612 14.669C61.0411 14.366 61.131 14.0085 61.131 13.5966C61.131 13.1799 61.0411 12.8248 60.8612 12.5312C60.686 12.233 60.4326 12.0057 60.1012 11.8494C59.7745 11.6884 59.3791 11.608 58.9151 11.608H57.5231V23H53.5742ZM71.7773 23.1989C70.5936 23.1989 69.5804 22.9645 68.7376 22.4957C67.8948 22.0223 67.2485 21.3641 66.7987 20.5213C66.3488 19.6738 66.1239 18.6913 66.1239 17.5739C66.1239 16.4564 66.3488 15.4763 66.7987 14.6335C67.2485 13.786 67.8948 13.1278 68.7376 12.6591C69.5804 12.1856 70.5936 11.9489 71.7773 11.9489C72.9611 11.9489 73.9743 12.1856 74.8171 12.6591C75.6599 13.1278 76.3062 13.786 76.756 14.6335C77.2058 15.4763 77.4308 16.4564 77.4308 17.5739C77.4308 18.6913 77.2058 19.6738 76.756 20.5213C76.3062 21.3641 75.6599 22.0223 74.8171 22.4957C73.9743 22.9645 72.9611 23.1989 71.7773 23.1989ZM71.8058 20.3011C72.1372 20.3011 72.4237 20.1899 72.6651 19.9673C72.9066 19.7448 73.0936 19.4276 73.2262 19.0156C73.3588 18.6037 73.4251 18.1136 73.4251 17.5455C73.4251 16.9725 73.3588 16.4825 73.2262 16.0753C73.0936 15.6634 72.9066 15.3461 72.6651 15.1236C72.4237 14.901 72.1372 14.7898 71.8058 14.7898C71.4554 14.7898 71.1547 14.901 70.9038 15.1236C70.6528 15.3461 70.4611 15.6634 70.3285 16.0753C70.1959 16.4825 70.1296 16.9725 70.1296 17.5455C70.1296 18.1136 70.1959 18.6037 70.3285 19.0156C70.4611 19.4276 70.6528 19.7448 70.9038 19.9673C71.1547 20.1899 71.4554 20.3011 71.8058 20.3011ZM79.0217 23V12.0909H82.9421V23H79.0217ZM80.9819 10.9545C80.4516 10.9545 79.997 10.7794 79.6183 10.429C79.2395 10.0786 79.0501 9.6572 79.0501 9.16477C79.0501 8.67235 79.2395 8.25095 79.6183 7.90057C79.997 7.55019 80.4516 7.375 80.9819 7.375C81.5169 7.375 81.9715 7.55019 82.3455 7.90057C82.7243 8.25095 82.9137 8.67235 82.9137 9.16477C82.9137 9.6572 82.7243 10.0786 82.3455 10.429C81.9715 10.7794 81.5169 10.9545 80.9819 10.9545ZM88.8601 16.8636V23H84.9396V12.0909H88.6612V14.1648H88.7749C89.0116 13.4735 89.4283 12.9313 90.0249 12.5384C90.6262 12.1454 91.3269 11.9489 92.1271 11.9489C92.8989 11.9489 93.5689 12.1264 94.1371 12.4815C94.71 12.8319 95.1527 13.3149 95.4652 13.9304C95.7824 14.5459 95.9387 15.2491 95.9339 16.0398V23H92.0135V16.8636C92.0182 16.3239 91.8809 15.9001 91.6016 15.5923C91.3269 15.2846 90.9434 15.1307 90.451 15.1307C90.129 15.1307 89.8473 15.2017 89.6058 15.3438C89.3691 15.4811 89.1868 15.6799 89.0589 15.9403C88.9311 16.196 88.8648 16.5038 88.8601 16.8636ZM104.375 12.0909V14.9318H97.1875V12.0909H104.375ZM98.5795 9.47727H102.5V19.4915C102.5 19.643 102.526 19.7708 102.578 19.875C102.63 19.9744 102.711 20.0502 102.82 20.1023C102.929 20.1496 103.068 20.1733 103.239 20.1733C103.357 20.1733 103.494 20.1591 103.651 20.1307C103.812 20.1023 103.93 20.0786 104.006 20.0597L104.574 22.8153C104.399 22.8674 104.148 22.9313 103.821 23.0071C103.499 23.0829 103.116 23.1326 102.67 23.1562C101.771 23.2036 101.016 23.1113 100.405 22.8793C99.794 22.6425 99.3348 22.2708 99.027 21.7642C98.7192 21.2576 98.5701 20.6231 98.5795 19.8608V9.47727ZM111.039 23V8.45455H119.817V10.017H112.8V14.9318H119.363V16.4943H112.8V21.4375H119.931V23H111.039ZM123.588 8.45455L127.907 20.6989H128.077L132.395 8.45455H134.242L128.901 23H127.083L121.742 8.45455H123.588ZM148.042 8.45455V23H146.337L138.411 11.5795H138.269V23H136.507V8.45455H138.212L146.167 19.9034H146.309V8.45455H148.042Z" fill="#0078E7"/>
</svg>
